<svg xmlns="http://www.w3.org/2000/svg" xmlns:svg="http://www.w3.org/2000/svg" id="svg2" width="1456.784" height="522.443" enable-background="new 0 0 1150.9 517" version="1.1" viewBox="0 0 1456.784 522.443" xml:space="preserve"><metadata id="metadata4"/><defs id="defs6"><clipPath id="e"><path id="path9" d="m 280.17,136.33 -21.5,-21.584 61,0 0,21.584 -39.5,0 z"/></clipPath><linearGradient id="f" x2="1" gradientTransform="matrix(37.935819,29.638391,-29.638391,37.935819,295.72019,166.19562)" gradientUnits="userSpaceOnUse"><stop id="stop12" offset="0" stop-color="#0c542a"/><stop id="stop14" offset=".215" stop-color="#0c542a"/><stop id="stop16" offset=".58" stop-color="#25af64"/><stop id="stop18" offset=".847" stop-color="#25af64"/><stop id="stop20" offset="1" stop-color="#25af64"/></linearGradient></defs><style id="style22" type="text/css">.st0{fill:#24af63}.st1{font-family:&apos;Maven Pro&apos;;font-weight:&apos;bold&apos;}.st2{font-size:209.8672px}.st4{fill:#ecdc86}.st5{fill:#a0918f}.st6{fill:#3f2b29}.st7{fill:#396e35}</style><linearGradient id="d" x1="295.46" x2="333.34" y1="150.75" y2="180.35" gradientUnits="userSpaceOnUse"><stop id="stop41" offset=".215" stop-color="#0D552B"/><stop id="stop43" offset=".311" stop-color="#176837"/><stop id="stop45" offset=".461" stop-color="#1F8448"/><stop id="stop47" offset=".604" stop-color="#239A56"/><stop id="stop49" offset=".736" stop-color="#24A860"/><stop id="stop51" offset=".847" stop-color="#25AF64"/></linearGradient><g id="layer2" style="display:inline" transform="translate(5.3761467,0)"><g id="g4209"><path style="fill:#24af63" id="path24" d="m 1084.1,163.75 0,3.6 c -0.1,0 -0.1,0 -0.2,0.1 l -1.8,-1.5 c -4,-3.4 -8.3,-6.4 -13.1,-8.8 -0.8,-0.4 -1.6,-0.9 -2.5,-1.1 -0.1,-0.1 -0.2,-0.2 -0.3,-0.2 -1.8,-0.7 -3.6,-1.3 -5.5,-1.8 -4.1,-0.9 -8.2,-1 -12.3,-0.2 -5.3,1.1 -10,3.4 -14.5,6.4 -4.4,3 -8.4,6.5 -12.1,10.2 -0.7,0.7 -0.7,0.7 -1.1,-0.2 -2,-4.1 -4.2,-8.1 -6.9,-11.8 -2.1,-2.8 -4.4,-5.4 -7.4,-7.2 -3,-1.9 -6.3,-2.6 -9.8,-1.7 -4.3,1 -7.8,3.6 -11.1,6.4 -2,1.5 -3.8,3.3 -5.6,5 -1.7,1.5 -3.3,3 -5,4.5 -0.3,0.3 -0.5,0.3 -0.8,0 -1.7,-1.8 -3.5,-3.4 -5.6,-4.5 -3.1,-1.7 -6.3,-1.9 -9.6,-0.8 -2.8,0.9 -5.2,2.4 -7.7,4 -1,0.6 -1.9,1.3 -2.9,1.8 l 0,-0.2 c 0.1,-0.2 0.1,-0.4 0.1,-0.6 0.2,-4.4 0.5,-8.9 1.2,-13.3 1,-6.1 2.5,-12 5.2,-17.5 2,-4.1 4.7,-7.9 8.1,-11 4.5,-4.1 9.8,-6.7 15.6,-8.3 6.3,-1.8 12.7,-2.6 19.2,-2.9 2.6,-0.1 5.1,-0.2 7.7,-0.3 1.3,0.5 2.6,0.8 3.9,1.2 1.9,0.6 3.8,1.2 5.7,1.7 1,0.4 1.9,0.7 2.9,1.1 3.7,1.3 7.3,3 10.4,5.5 0.8,0.6 1.6,1.3 2.4,2 -0.2,-0.6 -0.4,-1.1 -0.6,-1.7 -1.4,-3.7 -3.5,-6.7 -6.9,-8.8 -1.4,-0.9 -2.9,-1.5 -4.4,-2.3 0.1,0 0.3,0 0.4,-0.1 4.5,-0.8 9.1,-1.2 13.7,-1.4 3.9,-0.2 7.9,-0.1 11.8,0.3 4.6,0.5 9.1,1.4 13.4,3 6.4,2.4 11.9,6.1 16.2,11.5 3.7,4.7 6.1,10.1 7.6,15.9 1.5,5.7 2.1,11.6 2.3,17.5 -0.1,2.1 -0.1,4.3 -0.1,6.5 z" class="st0"/><path style="fill:#ecdc86" id="path26" d="m 1084.1,157.15 0.1,0 0,6.6 -0.1,0 0,-6.6 z" class="st4"/><path style="fill:#a0918f" id="path28" d="m 1047.6,62.25 0,0.1 -4.5,0 0,-0.1 4.5,0 z" class="st5"/><path style="fill:#24af63" id="path30" d="m 1050.5,250.65 c 2.5,-1 4.9,-2.3 7.3,-3.6 2.8,-1.7 5.4,-3.5 8,-5.4 2.2,-1.6 4.3,-3.3 6.4,-5.1 l 3.6,-3 c 0.2,-0.2 0.2,-0.1 0.3,0.1 0.4,1.6 0.7,3.3 1.1,5 0.5,2.3 0.8,4.6 1.1,6.9 0.3,2.7 0.4,5.3 0.2,8 -0.2,3.3 -0.8,6.6 -2,9.7 -0.7,1.9 -1.6,3.7 -2.7,5.4 -1.4,2.2 -3,4.2 -5,5.9 -2.3,2.1 -4.9,3.9 -7.7,5.4 -3.7,2.1 -7.7,3.6 -11.8,4.8 -3.9,1.2 -7.9,2 -11.9,2.7 -1.1,0.2 -2.2,0.4 -3.3,0.4 -2.3,-0.1 -4.6,-0.6 -6.8,-1.4 -3.3,-1.3 -6.2,-3.3 -9.5,-4.8 -1.8,-0.8 -3.6,-1.4 -5.5,-1.5 -2.5,-0.2 -4.6,0.7 -6.4,2.4 l -3.9,3.9 c -2.2,2.2 -4.8,3.7 -7.9,4.2 -2.1,0.3 -4.1,0.2 -6.2,-0.1 -2.9,-0.4 -5.7,-1.1 -8.4,-1.9 -4,-1.3 -7.7,-3.1 -11.1,-5.7 -3.2,-2.4 -5.7,-5.4 -7.8,-8.8 -2.1,-3.5 -3.3,-7.2 -4.2,-11.1 -0.4,-1.7 -0.6,-3.5 -0.8,-5.2 -0.3,-2.5 -0.4,-4.9 -0.3,-7.4 0.1,-3.5 0.4,-6.9 0.9,-10.4 0.4,0.4 0.8,0.7 1.1,1 2.2,2 4.7,3.8 7.3,5.4 2.9,1.7 6.1,3.1 9.4,4 2.2,0.6 4.5,1 6.8,1.1 1.9,0.2 3.8,0.2 5.7,0.1 2.2,-0.1 4.5,-0.3 6.7,-0.9 0.3,0 0.6,0 0.8,-0.1 2,-0.4 4,-0.9 6,-1.5 2.3,-0.7 4.5,-1.4 6.7,-2.2 2.1,-0.8 4.3,-1.7 6.4,-2.6 0.6,-0.3 1,-0.2 1.5,0.2 3.5,2.7 7.3,5 11.4,6.7 4.6,1.8 9.3,2.7 14.2,2.3 3.6,-0.7 7,-1.6 10.3,-2.9 z" class="st0"/><path style="fill:#ecdc86" id="path32" d="m 1050.5,250.65 c -3.3,1.3 -6.7,2.2 -10.2,2.5 -4.9,0.4 -9.6,-0.5 -14.2,-2.3 -4.1,-1.6 -7.9,-3.9 -11.4,-6.7 -0.5,-0.4 -0.9,-0.5 -1.5,-0.2 -2.1,0.9 -4.2,1.8 -6.4,2.6 -2.2,0.8 -4.4,1.6 -6.7,2.2 -2,0.6 -4,1 -6,1.5 -0.3,0.1 -0.6,0.1 -0.8,0.1 0.7,-0.8 1.4,-1.6 2.1,-2.4 2.8,-3.2 4.8,-6.9 5.9,-11.1 1.6,-5.6 3.2,-11.3 4.6,-17 1,-4.2 1.8,-8.4 2.4,-12.7 0.4,-3.1 1,-14.9 0.8,-17.7 -0.5,-8.6 -2.4,-16.8 -5.9,-24.7 -2.1,-4.7 -5.7,-7.9 -10.7,-9.2 -2.2,-0.6 -4.4,-0.4 -6.5,0.3 -0.2,0.1 -0.3,0.2 -0.5,0.1 3.3,-2.8 6.7,-5.4 11.1,-6.4 3.5,-0.8 6.8,-0.2 9.8,1.7 3,1.9 5.3,4.4 7.4,7.2 2.7,3.7 4.9,7.7 6.9,11.8 0.4,0.9 0.4,0.9 1.1,0.2 3.7,-3.8 7.7,-7.3 12.1,-10.2 4.4,-3 9.2,-5.3 14.5,-6.4 4.1,-0.8 8.2,-0.7 12.3,0.2 1.9,0.4 3.7,1 5.5,1.8 0.1,0.1 0.3,0.1 0.3,0.2 -5.3,0.1 -9.8,2.1 -13.9,5.2 -2,1.5 -3.8,3.2 -5.2,5.3 -1.1,1.7 -2.1,3.6 -2.9,5.5 -1.8,3.8 -3.3,7.8 -4.4,11.9 -0.9,3.5 -1.5,7.1 -1.8,10.7 -0.2,2.8 -0.3,5.6 -0.2,8.4 0.1,3.4 0.5,6.8 0.9,10.3 0.7,5.7 1.7,11.4 2.7,17.1 0.5,3.1 0.9,6.3 1.5,9.5 0.7,4.6 3.3,8 7,10.6 0,-0.1 0.2,0 0.3,0.1 z" class="st4"/><path style="fill:#3f2b29" id="path34" d="m 1043.1,62.35 4.5,0 c 3.6,0.2 7.2,0.8 10.6,2 2.7,0.9 3.3,2.7 1.7,5 -1.1,1.6 -2.7,2.8 -4.4,3.9 -2.1,1.4 -4.4,2.6 -6.9,3.5 -2.5,1 -4.9,0 -6.5,-2.5 -0.5,-0.8 -0.9,-1.6 -1.1,-2.5 -0.1,-0.3 -0.2,-0.4 -0.5,-0.4 -5.6,-1 -10.6,0.3 -14.7,4.3 -3.4,3.2 -5.4,7.3 -6.8,11.7 -1.3,4 -1.9,8 -2.1,12.2 -0.2,3.7 0.1,7.4 0.6,11 0.1,0.6 0.3,1.2 0.3,1.9 0.1,0.8 -0.2,1.5 -0.8,1.9 -0.7,0.5 -1.5,0.4 -2.3,0.4 -1.9,-0.6 -3.8,-1.2 -5.7,-1.7 l 0,-1.3 c 0,-2 0,-3.9 0.1,-5.9 0.4,-7.7 1.6,-15.3 4.6,-22.5 2.2,-5.4 5.4,-10.1 9.9,-13.8 3.7,-3.1 7.9,-5.1 12.6,-6.2 2.4,-0.6 4.6,-0.9 6.9,-1 z" class="st6"/><path style="fill:#396e35" id="path36" d="m 1014.8,114.65 c 0.8,0 1.6,0.1 2.3,-0.4 0.7,-0.5 0.9,-1.2 0.8,-1.9 -0.1,-0.6 -0.2,-1.3 -0.3,-1.9 0.4,0 0.7,-0.1 1.1,-0.1 1.4,0.8 2.9,1.5 4.4,2.3 3.4,2.1 5.5,5.1 6.9,8.8 0.2,0.6 0.4,1.1 0.6,1.7 -0.8,-0.7 -1.6,-1.4 -2.4,-2 -3.2,-2.4 -6.7,-4.1 -10.4,-5.5 -1.1,-0.3 -2,-0.6 -3,-1 z" class="st7"/><path style="fill:#396e35" id="path38" d="m 1009.1,111.65 0,1.3 c -1.3,-0.4 -2.6,-0.7 -3.9,-1.2 1.4,-0.1 2.7,-0.1 3.9,-0.1 z" class="st7"/></g></g><g id="layer3" style="display:inline" transform="translate(5.3761467,0)"><text id="text53" x="48.899" y="241.245" font-size="209.87" font-weight="bold" style="font-weight:700;font-size:209.86999512px;font-family:'Maven Pro'"><tspan id="tspan55" x="48.899" y="241.245" class="st0 st1 st2" font-size="209.87" font-weight="bold" style="font-weight:700;font-size:209.86720276px;font-family:'Maven Pro';fill:#24af63">nf-</tspan></text><text id="text69" x="357.141" y="241.245" font-size="209.87" font-weight="bold" style="font-weight:700;font-size:209.86999512px;font-family:'Maven Pro'"><tspan id="tspan71" x="357.141" y="241.245" class="st0 st1 st2" font-size="209.87" font-weight="bold" style="font-weight:700;font-size:209.86720276px;font-family:'Maven Pro';fill:#24af63"><tspan id="tspan73" style="fill:#000">core/</tspan></tspan></text><text id="text59" x="-260.05" y="457.045" font-weight="bold" style="font-weight:700;font-family:'Maven Pro'"><tspan id="tspan61" x="47.85" y="457.045" class="st1 st2" font-size="209.87" font-weight="bold" style="font-weight:700;font-size:209.86720276px;font-family:'Maven Pro'">hic</tspan></text><path id="path67" d="m 300.43725,166.1155 -21.53224,21.61638 61.0915,0 0,-21.61638 -39.55926,0 z" style="fill:url(#f)"/></g></svg>